<mxfile host="app.diagrams.net" modified="2022-06-26T16:19:31.633Z" agent="5.0 (Windows NT 10.0; Win64; x64) AppleWebKit/537.36 (KHTML, like Gecko) Chrome/102.0.0.0 Safari/537.36" etag="0cVsL6FxAwjm5n5Xe0np" version="20.0.3" type="github">
  <diagram id="P_5Exqcinh2wY1HSjJye" name="Page-1">
    <mxGraphModel dx="862" dy="425" grid="1" gridSize="10" guides="1" tooltips="1" connect="1" arrows="1" fold="1" page="1" pageScale="1" pageWidth="850" pageHeight="1100" math="0" shadow="0">
      <root>
        <mxCell id="0" />
        <mxCell id="1" parent="0" />
        <mxCell id="Eo39ov_3Lsh5uql5R_oe-1" value="Aktor" style="swimlane;" vertex="1" parent="1">
          <mxGeometry x="180" y="40" width="200" height="340" as="geometry" />
        </mxCell>
        <mxCell id="Eo39ov_3Lsh5uql5R_oe-2" value="Sistem" style="swimlane;" vertex="1" parent="1">
          <mxGeometry x="380" y="40" width="200" height="340" as="geometry" />
        </mxCell>
      </root>
    </mxGraphModel>
  </diagram>
</mxfile>
